<svg width="124" height="75" viewBox="0 0 124 75" fill="none" xmlns="http://www.w3.org/2000/svg">
<path d="M17.1515 37.5322C17.1515 37.5322 17.265 47.4448 25.4088 51.7436C31.709 55.0653 37.0016 54.8688 40.9738 52.6543C49.447 47.9319 49.7017 39.1238 49.7017 39.1238L54.9113 48.8122L57.7126 60.1448L57.3859 61.9026L49.7017 65.0361H39.4763C39.4763 65.0361 21.4836 65.9772 15.8339 41.3937C14.8845 37.2554 17.1515 37.5322 17.1515 37.5322Z" fill="#005D83"/>
<path d="M57.6323 60.4773C51.2657 65.9941 40.7081 65.637 33.4031 62.6198C24.8856 59.1043 22.2172 54.1522 19.4159 48.616C17.8546 45.5323 17.1598 41.6348 17.146 38.1774C17.146 35.1491 17.6664 31.534 19.6761 28.4891C22.4442 24.3369 28.534 21.2588 28.534 21.2588C28.534 21.2588 17.7218 23.6698 11.2084 32.7215C4.69507 41.7732 7.23619 52.782 7.23619 52.782C7.23619 52.782 11.2749 68.2197 23.3244 72.5186C35.374 76.8174 46.38 72.2584 46.38 72.2584C46.38 72.2584 54.7812 69.5871 60.0572 63.0073L57.6323 60.4745" fill="#19CAE4"/>
<path d="M102.199 30.8362C102.199 30.8362 99.3806 20.0572 92.2167 15.4317C85.0529 10.8062 81.1609 10.6263 76.1451 10.6457C68.3944 10.6733 63.2568 14.5736 63.2568 14.5736L66.4402 21.2613L69.175 30.8362L70.5425 36.1122C70.5425 36.1122 70.4511 32.3116 74.0275 27.6778C77.7728 22.8253 79.4447 22.2855 82.6917 21.5354C86.8909 20.561 91.3835 20.8683 95.2921 23.473C99.2007 26.0778 102.199 30.8362 102.199 30.8362Z" fill="#005D83"/>
<path d="M122.383 48.3281C118.151 61.1582 111.153 66.7249 101.155 71.857C97.4926 73.7421 77.8391 80.5211 60.0568 62.999C52.0155 55.074 50.2162 49.5045 49.5048 35.9713C48.6744 19.8166 36.8047 11.4154 23.0611 10.9587C9.31744 10.5019 0 23.3459 0 23.3459C0 23.3459 3.71756 9.7324 20.8466 2.56854C37.9756 -4.59531 53.3497 5.49997 53.3497 5.49997C57.5018 8.06323 61.1004 11.4929 62.9218 14.0977C64.3557 16.1489 66.3099 18.917 67.7438 22.4352C69.1971 26.0006 70.6088 30.8364 70.5424 36.1124C70.4815 41.0424 71.9264 48.7295 73.8004 51.2816C80.2197 60.0344 82.567 61.6676 88.2389 64.0315C88.6324 64.1971 89.0426 64.3196 89.4624 64.3969C105.49 67.3256 116.986 62.761 122.383 48.3281Z" fill="#19CAE4"/>
<path d="M70.6419 36.1481C70.581 41.0781 71.1567 44.4524 72.92 47.0904C81.2963 59.569 95.6185 54.819 103.067 49.7063C109.514 45.2773 113.495 39.2539 113.758 28.2009C114.018 17.325 109.883 12.4697 105.55 8.14041C104.358 6.96822 102.998 5.98023 101.515 5.20898C116.429 9.18398 122.356 27.614 122.356 27.614C122.356 27.614 126.264 36.9951 122.029 49.8253C117.7 59.951 108.905 64.4962 104.997 65.8111C101.088 67.1259 90.049 70.0075 80.1835 61.3351C73.3435 55.3255 69.1111 48.4219 70.6419 36.1453" fill="#005D83"/>
</svg>
